# xmcd CD database file
#
# Track frame offsets:
#	182
#	14382
#	26470
#	40570
#	55675
#	67477
#	80612
#	95710
#	111037
#	126837
#	141795
#	153342
#	167602
#	182390
#	195957
#	207165
#	221137
#	235360
#
# Disc length: 3325 seconds
#
# Revision: 4
# Processed by: cddbd v1.5.2PL0 Copyright (c) Steve Scherf et al.
# Submitted via: CDex 1.51
#
DISCID=f40cfb12
DTITLE=Tommy Dorsey - Blue Danube  {1936-1938}
DYEAR=1990
DGENRE=Jazz
TTITLE0=At The Codfish Ball   [1936]
TTITLE1=Maple Leaf Rag   [1936]
TTITLE2=Song Of India   [1937]
TTITLE3=Marie   [1937]
TTITLE4=Mendelssohn's Spring Song   [1937]
TTITLE5=Blue Danube   [1937]
TTITLE6=Stop, Look And Listen   [1937]
TTITLE7=Twilight In Turkey   [1937]
TTITLE8=Rollin' Home   [1937]
TTITLE9=Beale Street Blues   [1937]
TTITLE10=Night And Day   [1937]
TTITLE11=Smoke Get's In Your Eyes   [1937]
TTITLE12=When The Midnight Choo Choo Leaves For Alabama   [1938]
TTITLE13=Panama   [1938]
TTITLE14=The Sheik Of Araby   [1938]
TTITLE15=Chinatown, My Chinatown   [1938]
TTITLE16=Boogie Woogie   [1938]
TTITLE17=Hawaiian War Chant (Pa-Hu-Wa-Hu-Wai)   [1938]
EXTD=YEAR: 1990
EXTT0=
EXTT1=
EXTT2=
EXTT3=
EXTT4=
EXTT5=
EXTT6=
EXTT7=
EXTT8=
EXTT9=
EXTT10=
EXTT11=
EXTT12=
EXTT13=
EXTT14=
EXTT15=
EXTT16=
EXTT17=
PLAYORDER=
